<?xml version="1.0" encoding="UTF-8"?>
<!DOCTYPE svg PUBLIC "-//W3C//DTD SVG 1.1//EN" "http://www.w3.org/Graphics/SVG/1.1/DTD/svg11.dtd">
<svg xmlns="http://www.w3.org/2000/svg" version="1.1" width="1024px" height="1024px" style="shape-rendering:geometricPrecision; text-rendering:geometricPrecision; image-rendering:optimizeQuality; fill-rule:evenodd; clip-rule:evenodd" xmlns:xlink="http://www.w3.org/1999/xlink">
<g><path style="opacity:1" fill="#fbfbfb" d="M -0.5,-0.5 C 340.833,-0.5 682.167,-0.5 1023.5,-0.5C 1023.5,340.833 1023.5,682.167 1023.5,1023.5C 682.167,1023.5 340.833,1023.5 -0.5,1023.5C -0.5,682.167 -0.5,340.833 -0.5,-0.5 Z"/></g>
<g><path style="opacity:1" fill="#010101" d="M 236.5,663.5 C 236.167,545.665 236.5,427.999 237.5,310.5C 270.6,327.551 303.6,344.884 336.5,362.5C 336.167,425.837 336.5,489.17 337.5,552.5C 338.107,552.376 338.44,552.043 338.5,551.5C 374.633,532.267 410.633,512.767 446.5,493C 468.804,469.793 472.304,443.96 457,415.5C 452.386,408.43 446.553,402.597 439.5,398C 371.992,361.745 304.325,325.745 236.5,290C 235.506,268.575 235.173,247.075 235.5,225.5C 263.835,225.333 292.169,225.5 320.5,226C 378.086,256.598 435.419,287.598 492.5,319C 554.033,358.253 577.866,413.753 564,485.5C 552.609,524.128 529.775,553.961 495.5,575C 440.198,604.319 384.865,633.652 329.5,663C 298.502,663.5 267.502,663.667 236.5,663.5 Z"/></g>
<g><path style="opacity:1" fill="#020202" d="M 702.5,225.5 C 730.5,225.5 758.5,225.5 786.5,225.5C 786.827,247.075 786.494,268.575 785.5,290C 717.34,326.579 649.34,363.412 581.5,400.5C 570.786,368.625 552.119,342.459 525.5,322C 584.562,289.805 643.562,257.638 702.5,225.5 Z"/></g>
<g><path style="opacity:1" fill="#010101" d="M 786.5,663.5 C 752.833,663.5 719.167,663.5 685.5,663.5C 685.5,563.5 685.5,463.5 685.5,363.5C 718.806,345.512 752.14,327.512 785.5,309.5C 786.5,427.498 786.833,545.498 786.5,663.5 Z"/></g>
<g><path style="opacity:1" fill="#484848" d="M 336.5,362.5 C 337.167,425.5 337.833,488.5 338.5,551.5C 338.44,552.043 338.107,552.376 337.5,552.5C 336.5,489.17 336.167,425.837 336.5,362.5 Z"/></g>
<g><path style="opacity:1" fill="#464646" d="M 237.5,310.5 C 236.5,427.999 236.167,545.665 236.5,663.5C 235.168,545.666 235.168,427.666 236.5,309.5C 237.107,309.624 237.44,309.957 237.5,310.5 Z"/></g>
<g><path style="opacity:1" fill="#d1d1d1" d="M 685.5,363.5 C 685.5,463.5 685.5,563.5 685.5,663.5C 719.167,663.5 752.833,663.5 786.5,663.5C 752.671,664.498 718.671,664.832 684.5,664.5C 684.167,563.999 684.501,463.665 685.5,363.5 Z"/></g>
<g><path style="opacity:1" fill="#0a0a0a" d="M 580.5,720.5 C 592.209,718.659 602.876,720.992 612.5,727.5C 610.5,730.833 608.5,734.167 606.5,737.5C 599.092,732.941 591.092,731.441 582.5,733C 576.599,737.644 575.932,742.977 580.5,749C 588.886,752.181 597.219,755.514 605.5,759C 617.146,769.933 617.479,781.266 606.5,793C 604.33,794.586 601.996,795.92 599.5,797C 586.934,800.062 574.934,798.729 563.5,793C 562.272,792.221 561.272,791.221 560.5,790C 561.842,786.458 564.008,783.625 567,781.5C 576.453,787.08 586.286,787.913 596.5,784C 599.979,779.855 600.312,775.522 597.5,771C 589.534,767.675 581.534,764.342 573.5,761C 563.159,753.284 560.659,743.451 566,731.5C 569.857,726.468 574.69,722.801 580.5,720.5 Z"/></g>
<g><path style="opacity:1" fill="#0a0a0a" d="M 847.5,720.5 C 853.842,720.334 860.175,720.5 866.5,721C 871.426,722.13 875.759,724.296 879.5,727.5C 878.282,731.302 876.115,734.302 873,736.5C 865.898,732.85 858.398,731.684 850.5,733C 843.412,737.53 842.745,742.863 848.5,749C 856.512,752.335 864.512,755.668 872.5,759C 882.375,767.13 884.208,776.963 878,788.5C 874.908,792.928 870.741,795.761 865.5,797C 853.274,800.046 841.607,798.713 830.5,793C 829.313,791.981 828.313,790.814 827.5,789.5C 829.473,786.36 831.64,783.36 834,780.5C 842.694,786.619 852.194,788.119 862.5,785C 868.583,780.229 868.916,775.229 863.5,770C 855.833,767 848.167,764 840.5,761C 829.832,752.74 827.665,742.573 834,730.5C 837.767,726.048 842.267,722.714 847.5,720.5 Z"/></g>
<g><path style="opacity:1" fill="#070707" d="M 142.5,721.5 C 153.505,721.333 164.505,721.5 175.5,722C 199.455,727.708 209.622,742.875 206,767.5C 202.265,785.634 191.098,795.301 172.5,796.5C 162.5,796.5 152.5,796.5 142.5,796.5C 142.5,771.5 142.5,746.5 142.5,721.5 Z"/></g>
<g><path style="opacity:1" fill="#090909" d="M 322.5,796.5 C 317.737,796.774 313.07,796.441 308.5,795.5C 299.036,771.111 289.369,746.778 279.5,722.5C 284.5,721.167 289.5,721.167 294.5,722.5C 301.456,740.429 308.456,758.429 315.5,776.5C 322.599,758.629 329.433,740.629 336,722.5C 341.114,721.196 346.281,721.196 351.5,722.5C 341.052,746.841 331.385,771.508 322.5,796.5 Z"/></g>
<g><path style="opacity:1" fill="#080808" d="M 468.5,787.5 C 468.5,790.5 468.5,793.5 468.5,796.5C 464.167,796.5 459.833,796.5 455.5,796.5C 454.666,783.161 453.666,769.827 452.5,756.5C 445.142,769.216 438.309,782.216 432,795.5C 429.861,796.769 427.695,796.769 425.5,795.5C 418.821,782.806 412.154,770.14 405.5,757.5C 405.44,756.957 405.107,756.624 404.5,756.5C 403.516,759.428 403.183,762.428 403.5,765.5C 402.759,771.471 402.425,777.471 402.5,783.5C 401.515,787.634 401.182,791.968 401.5,796.5C 397.167,796.5 392.833,796.5 388.5,796.5C 388.5,793.833 388.5,791.167 388.5,788.5C 389.543,766.148 390.876,743.815 392.5,721.5C 395.777,721.216 398.943,721.549 402,722.5C 410.833,739.5 419.667,756.5 428.5,773.5C 437.812,756.88 446.645,739.88 455,722.5C 458.057,721.549 461.223,721.216 464.5,721.5C 465.833,743.5 467.167,765.5 468.5,787.5 Z"/></g>
<g><path style="opacity:1" fill="#080808" d="M 496.5,795.5 C 491.4,796.8 486.4,796.8 481.5,795.5C 491.1,771.041 501.1,746.708 511.5,722.5C 514.768,721.513 518.102,721.18 521.5,721.5C 531.044,746.456 541.377,771.122 552.5,795.5C 547.208,796.495 541.875,796.828 536.5,796.5C 536.07,792.042 534.736,787.876 532.5,784C 521.833,783.333 511.167,783.333 500.5,784C 498.47,787.589 497.137,791.422 496.5,795.5 Z"/></g>
<g><path style="opacity:1" fill="#040404" d="M 679.5,733.5 C 672.167,733.5 664.833,733.5 657.5,733.5C 657.5,754.5 657.5,775.5 657.5,796.5C 652.833,796.5 648.167,796.5 643.5,796.5C 643.5,775.5 643.5,754.5 643.5,733.5C 636.5,733.5 629.5,733.5 622.5,733.5C 622.5,729.5 622.5,725.5 622.5,721.5C 641.5,721.5 660.5,721.5 679.5,721.5C 679.5,725.5 679.5,729.5 679.5,733.5 Z"/></g>
<g><path style="opacity:1" fill="#020202" d="M 693.5,721.5 C 709.5,721.5 725.5,721.5 741.5,721.5C 741.5,725.5 741.5,729.5 741.5,733.5C 730.167,733.5 718.833,733.5 707.5,733.5C 707.5,740.167 707.5,746.833 707.5,753.5C 717.5,753.5 727.5,753.5 737.5,753.5C 737.5,757.167 737.5,760.833 737.5,764.5C 727.5,764.5 717.5,764.5 707.5,764.5C 707.5,771.5 707.5,778.5 707.5,785.5C 719.167,785.5 730.833,785.5 742.5,785.5C 742.5,789.167 742.5,792.833 742.5,796.5C 726.167,796.5 709.833,796.5 693.5,796.5C 693.5,771.5 693.5,746.5 693.5,721.5 Z"/></g>
<g><path style="opacity:1" fill="#060606" d="M 758.5,721.5 C 771.546,721.123 784.546,721.623 797.5,723C 814.484,732.035 818.318,745.201 809,762.5C 806.111,765.727 802.944,768.561 799.5,771C 804.713,779.264 810.047,787.431 815.5,795.5C 810.36,796.488 805.026,796.821 799.5,796.5C 794.735,788.626 789.735,780.959 784.5,773.5C 780.702,772.517 776.702,772.183 772.5,772.5C 772.5,780.5 772.5,788.5 772.5,796.5C 767.833,796.5 763.167,796.5 758.5,796.5C 758.5,771.5 758.5,746.5 758.5,721.5 Z"/></g>
<g><path style="opacity:1" fill="#090909" d="M 270.5,733.5 C 259.167,733.5 247.833,733.5 236.5,733.5C 236.5,740.167 236.5,746.833 236.5,753.5C 246.5,753.5 256.5,753.5 266.5,753.5C 266.5,757.167 266.5,760.833 266.5,764.5C 256.5,764.5 246.5,764.5 236.5,764.5C 236.176,771.354 236.509,778.021 237.5,784.5C 249.167,784.5 260.833,784.5 272.5,784.5C 272.5,788.833 272.5,793.167 272.5,797.5C 255.833,797.5 239.167,797.5 222.5,797.5C 222.5,772.167 222.5,746.833 222.5,721.5C 238.833,721.5 255.167,721.5 271.5,721.5C 271.817,725.702 271.483,729.702 270.5,733.5 Z"/></g>
<g><path style="opacity:1" fill="#5f5f5f" d="M 142.5,721.5 C 142.5,746.5 142.5,771.5 142.5,796.5C 152.5,796.5 162.5,796.5 172.5,796.5C 162.347,797.494 152.014,797.828 141.5,797.5C 141.169,771.995 141.502,746.661 142.5,721.5 Z"/></g>
<g><path style="opacity:1" fill="#ababab" d="M 693.5,721.5 C 709.658,720.504 725.991,720.17 742.5,720.5C 742.5,725.167 742.5,729.833 742.5,734.5C 731.167,734.5 719.833,734.5 708.5,734.5C 708.5,740.5 708.5,746.5 708.5,752.5C 718.681,752.173 728.681,752.506 738.5,753.5C 738.167,753.5 737.833,753.5 737.5,753.5C 727.5,753.5 717.5,753.5 707.5,753.5C 707.5,746.833 707.5,740.167 707.5,733.5C 718.833,733.5 730.167,733.5 741.5,733.5C 741.5,729.5 741.5,725.5 741.5,721.5C 725.5,721.5 709.5,721.5 693.5,721.5 Z"/></g>
<g><path style="opacity:1" fill="#f8f8f8" d="M 156.5,734.5 C 162.842,734.334 169.175,734.5 175.5,735C 187.736,739.077 193.403,747.577 192.5,760.5C 191.747,774.426 184.414,782.593 170.5,785C 165.845,785.499 161.179,785.666 156.5,785.5C 156.5,768.5 156.5,751.5 156.5,734.5 Z"/></g>
<g><path style="opacity:1" fill="#f8f8f8" d="M 788.5,734.5 C 799.511,738.053 802.345,745.053 797,755.5C 794.194,758.603 790.694,760.27 786.5,760.5C 782.167,760.5 777.833,760.5 773.5,760.5C 773.5,751.833 773.5,743.167 773.5,734.5C 778.5,734.5 783.5,734.5 788.5,734.5 Z"/></g>
<g><path style="opacity:1" fill="#c0c0c0" d="M 758.5,721.5 C 758.5,746.5 758.5,771.5 758.5,796.5C 763.167,796.5 767.833,796.5 772.5,796.5C 772.5,788.5 772.5,780.5 772.5,772.5C 776.702,772.183 780.702,772.517 784.5,773.5C 780.833,773.5 777.167,773.5 773.5,773.5C 773.5,781.5 773.5,789.5 773.5,797.5C 768.167,797.5 762.833,797.5 757.5,797.5C 757.169,771.995 757.502,746.661 758.5,721.5 Z"/></g>
<g><path style="opacity:1" fill="#7b7b7b" d="M 679.5,733.5 C 672.687,734.491 665.687,734.825 658.5,734.5C 658.5,755.5 658.5,776.5 658.5,797.5C 653.305,797.821 648.305,797.487 643.5,796.5C 648.167,796.5 652.833,796.5 657.5,796.5C 657.5,775.5 657.5,754.5 657.5,733.5C 664.833,733.5 672.167,733.5 679.5,733.5 Z"/></g>
<g><path style="opacity:1" fill="#b3b3b3" d="M 788.5,734.5 C 783.5,734.5 778.5,734.5 773.5,734.5C 773.5,743.167 773.5,751.833 773.5,760.5C 777.833,760.5 782.167,760.5 786.5,760.5C 782.03,761.486 777.363,761.819 772.5,761.5C 772.5,752.167 772.5,742.833 772.5,733.5C 778.026,733.179 783.36,733.512 788.5,734.5 Z"/></g>
<g><path style="opacity:1" fill="#878787" d="M 693.5,721.5 C 693.5,746.5 693.5,771.5 693.5,796.5C 709.833,796.5 726.167,796.5 742.5,796.5C 726.008,797.497 709.342,797.83 692.5,797.5C 692.169,771.995 692.502,746.661 693.5,721.5 Z"/></g>
<g><path style="opacity:1" fill="#a8a8a8" d="M 270.5,733.5 C 259.679,734.495 248.679,734.828 237.5,734.5C 237.5,740.5 237.5,746.5 237.5,752.5C 247.681,752.173 257.681,752.506 267.5,753.5C 267.167,753.5 266.833,753.5 266.5,753.5C 256.5,753.5 246.5,753.5 236.5,753.5C 236.5,746.833 236.5,740.167 236.5,733.5C 247.833,733.5 259.167,733.5 270.5,733.5 Z"/></g>
<g><path style="opacity:1" fill="#f1f1f1" d="M 515.5,744.5 C 519.982,752.806 523.982,761.472 527.5,770.5C 520.167,771.833 512.833,771.833 505.5,770.5C 509.036,761.888 512.37,753.221 515.5,744.5 Z"/></g>
<g><path style="opacity:1" fill="#6d6d6d" d="M 266.5,753.5 C 266.833,753.5 267.167,753.5 267.5,753.5C 267.5,757.5 267.5,761.5 267.5,765.5C 257.5,765.5 247.5,765.5 237.5,765.5C 237.5,771.833 237.5,778.167 237.5,784.5C 236.509,778.021 236.176,771.354 236.5,764.5C 246.5,764.5 256.5,764.5 266.5,764.5C 266.5,760.833 266.5,757.167 266.5,753.5 Z"/></g>
<g><path style="opacity:1" fill="#828282" d="M 405.5,757.5 C 404.833,760.167 404.167,762.833 403.5,765.5C 403.183,762.428 403.516,759.428 404.5,756.5C 405.107,756.624 405.44,756.957 405.5,757.5 Z"/></g>
<g><path style="opacity:1" fill="#7f7f7f" d="M 737.5,753.5 C 737.833,753.5 738.167,753.5 738.5,753.5C 738.5,757.5 738.5,761.5 738.5,765.5C 728.5,765.5 718.5,765.5 708.5,765.5C 708.5,771.833 708.5,778.167 708.5,784.5C 720.012,784.172 731.346,784.505 742.5,785.5C 730.833,785.5 719.167,785.5 707.5,785.5C 707.5,778.5 707.5,771.5 707.5,764.5C 717.5,764.5 727.5,764.5 737.5,764.5C 737.5,760.833 737.5,757.167 737.5,753.5 Z"/></g>
<g><path style="opacity:1" fill="#6f6f6f" d="M 308.5,795.5 C 313.07,796.441 317.737,796.774 322.5,796.5C 320.359,797.163 318.025,797.497 315.5,797.5C 312.731,797.471 310.397,796.805 308.5,795.5 Z"/></g>
<g><path style="opacity:1" fill="#7e7e7e" d="M 402.5,783.5 C 402.5,788.167 402.5,792.833 402.5,797.5C 397.5,797.5 392.5,797.5 387.5,797.5C 387.19,794.287 387.523,791.287 388.5,788.5C 388.5,791.167 388.5,793.833 388.5,796.5C 392.833,796.5 397.167,796.5 401.5,796.5C 401.182,791.968 401.515,787.634 402.5,783.5 Z"/></g>
<g><path style="opacity:1" fill="#8d8d8d" d="M 468.5,787.5 C 469.479,790.625 469.813,793.958 469.5,797.5C 464.637,797.819 459.97,797.486 455.5,796.5C 459.833,796.5 464.167,796.5 468.5,796.5C 468.5,793.5 468.5,790.5 468.5,787.5 Z"/></g>
<g><path style="opacity:1" fill="#7f7f7f" d="M 481.5,795.5 C 486.4,796.8 491.4,796.8 496.5,795.5C 494.257,796.812 491.59,797.478 488.5,797.5C 485.833,797.167 483.167,796.833 480.5,796.5C 480.624,795.893 480.957,795.56 481.5,795.5 Z"/></g>
<g><path style="opacity:1" fill="#7a7a7a" d="M 815.5,795.5 C 816.043,795.56 816.376,795.893 816.5,796.5C 810.68,797.816 805.013,797.816 799.5,796.5C 805.026,796.821 810.36,796.488 815.5,795.5 Z"/></g>
</svg>
